<?xml version="1.0" encoding="utf-8"?>
<!-- Generator: Adobe Illustrator 16.0.4, SVG Export Plug-In . SVG Version: 6.00 Build 0)  -->
<!DOCTYPE svg PUBLIC "-//W3C//DTD SVG 1.1//EN" "http://www.w3.org/Graphics/SVG/1.1/DTD/svg11.dtd">
<svg version="1.1" xmlns="http://www.w3.org/2000/svg" xmlns:xlink="http://www.w3.org/1999/xlink" x="0px" y="0px" width="128px"
	 height="128px" viewBox="0 0 128 128" enable-background="new 0 0 128 128" xml:space="preserve">
<g id="Layer_1">
	<ellipse fill="none" stroke="#4D8DFF" stroke-width="1.9036" stroke-miterlimit="10" cx="64" cy="64" rx="62.024" ry="27.544"/>
	
		<ellipse transform="matrix(0.7665 -0.6423 0.6423 0.7665 -26.16 56.0539)" fill="none" stroke="#4D8DFF" stroke-width="1.876" stroke-miterlimit="10" cx="64" cy="64" rx="26.753" ry="72.415"/>
	
		<ellipse transform="matrix(-0.7665 -0.6423 0.6423 -0.7665 71.9438 154.1592)" fill="none" stroke="#4D8DFF" stroke-width="1.876" stroke-miterlimit="10" cx="63.999" cy="64" rx="26.753" ry="72.415"/>
</g>
<g id="Layer_2">
	<path fill="#4D8DFF" d="M79.343,72.617c-0.575,1.328-1.256,2.552-2.045,3.676c-1.074,1.532-1.954,2.594-2.633,3.183
		c-1.052,0.967-2.178,1.462-3.385,1.49c-0.865,0-1.91-0.246-3.126-0.746c-1.22-0.498-2.341-0.744-3.365-0.744
		c-1.075,0-2.228,0.246-3.461,0.744c-1.235,0.5-2.229,0.76-2.99,0.786c-1.157,0.049-2.31-0.46-3.461-1.53
		c-0.735-0.641-1.654-1.739-2.754-3.295c-1.181-1.662-2.152-3.589-2.913-5.785c-0.814-2.374-1.223-4.671-1.223-6.896
		c0-2.548,0.55-4.746,1.654-6.587c0.866-1.479,2.02-2.646,3.463-3.503c1.443-0.857,3.003-1.293,4.682-1.321
		c0.918,0,2.124,0.285,3.622,0.843c1.493,0.561,2.452,0.845,2.872,0.845c0.314,0,1.379-0.332,3.185-0.995
		c1.707-0.615,3.149-0.869,4.33-0.769c3.198,0.258,5.602,1.519,7.199,3.792c-2.86,1.733-4.275,4.161-4.248,7.275
		c0.026,2.426,0.906,4.445,2.636,6.048c0.784,0.743,1.659,1.318,2.634,1.727C79.803,71.467,79.58,72.055,79.343,72.617
		L79.343,72.617z M72.005,43.748c0,1.901-0.694,3.677-2.079,5.32c-1.671,1.954-3.691,3.082-5.884,2.905
		c-0.028-0.229-0.043-0.468-0.043-0.721c0-1.826,0.794-3.779,2.206-5.377c0.705-0.809,1.601-1.481,2.687-2.018
		c1.085-0.528,2.11-0.82,3.075-0.871C71.994,43.241,72.005,43.495,72.005,43.748L72.005,43.748z"/>
</g>
</svg>
